<svg width="24" height="31" viewBox="0 0 24 31" fill="none" xmlns="http://www.w3.org/2000/svg">
<path d="M17.633 0.841614C15.976 1.39061 14.405 1.94561 13.252 3.09161C12.099 4.23761 11.49 5.94861 11.682 8.43061C11.709 8.82561 12.144 9.14161 12.538 9.05461C14.259 8.67461 15.946 8.00861 17.138 6.77261C18.331 5.53561 18.946 3.71561 18.555 1.37961C18.456 0.837614 18.045 0.724614 17.633 0.841614ZM7.433 9.40961C8.293 9.40961 9.151 9.77261 10.013 10.1956C10.875 10.6176 11.708 11.1316 12.703 11.1316C13.828 11.0266 14.887 10.5456 15.766 10.1846C16.783 9.77061 17.807 9.40961 18.676 9.40961C20.246 9.40961 21.924 10.3956 22.946 11.4446C21.014 13.1246 19.379 15.0986 19.379 17.3326C19.391 20.3546 21.388 22.0076 23.496 23.4676C23.0822 25.1743 22.2984 26.7693 21.2 28.1396C20.046 29.5536 18.675 30.4216 17.62 30.4216C16.723 30.4216 15.956 30.1336 15.183 29.7976C14.411 29.4606 13.639 29.0436 12.702 29.0436C11.765 29.0436 10.93 29.4476 10.067 29.7866C9.204 30.1256 8.33 30.4216 7.432 30.4216C7.037 30.4216 6.309 30.0946 5.522 29.3666C4.734 28.6386 3.88 27.5526 3.117 26.2446C1.593 23.6276 0.406002 20.1066 0.406002 16.6436C0.340002 12.5166 3.854 9.41661 7.433 9.40961Z" fill="black"/>
</svg>
